<svg xmlns="http://www.w3.org/2000/svg" width="60" height="60" viewBox="0 0 60 60">
  <path id="Icon_simple-bootstrap" data-name="Icon simple-bootstrap" d="M50,0H10A10.026,10.026,0,0,0,0,10V50A10.029,10.029,0,0,0,10,60H50A10.029,10.029,0,0,0,60,50V10A10.029,10.029,0,0,0,50,0ZM44.532,42.137a7.8,7.8,0,0,1-2.307,3.085,11.782,11.782,0,0,1-4.018,2.05,19.788,19.788,0,0,1-5.832.763H16.3v-35h17a12.114,12.114,0,0,1,7.55,2.15c1.9,1.45,2.845,3.61,2.845,6.525A7.763,7.763,0,0,1,42.4,26.235a8.3,8.3,0,0,1-3.7,2.89v.115a7.562,7.562,0,0,1,4.875,3.037,10.272,10.272,0,0,1,1.645,5.968,10.005,10.005,0,0,1-.75,3.82l.063.068Zm-6.94-8.625a6.17,6.17,0,0,0-4.325-1.4H22.462v10.92H33.3a6.057,6.057,0,0,0,4.325-1.45,5.366,5.366,0,0,0,1.55-4.1,5.132,5.132,0,0,0-1.55-3.975H37.58Zm-1.5-7.058a4.465,4.465,0,0,0,1.475-3.61c0-1.76-.437-3.01-1.325-3.725a5.939,5.939,0,0,0-3.82-1.083h-10v9.657h10a5.51,5.51,0,0,0,3.66-1.24Z"/>
</svg>
