<svg xmlns="http://www.w3.org/2000/svg" width="25" height="25" viewBox="0 0 25 25">
  <path id="Icon_ionic-logo-github" data-name="Icon ionic-logo-github" d="M14.75,2.25A12.665,12.665,0,0,0,2.25,15.068,12.794,12.794,0,0,0,10.8,27.228a.98.98,0,0,0,.212.022.6.6,0,0,0,.642-.636c0-.307-.011-1.11-.017-2.182a5.714,5.714,0,0,1-1.261.151,2.9,2.9,0,0,1-2.952-1.869,3.385,3.385,0,0,0-1.39-1.875c-1.088-.765-.006-.787.078-.787h.006a2.687,2.687,0,0,1,1.914,1.328,2.454,2.454,0,0,0,2.21,1.4,3.513,3.513,0,0,0,1.429-.335,2.769,2.769,0,0,1,.792-1.713C9.689,20.408,6.77,19.309,6.77,14.4a5.017,5.017,0,0,1,1.283-3.437,4.718,4.718,0,0,1,.123-3.393,1.04,1.04,0,0,1,.279-.028,5.943,5.943,0,0,1,3.158,1.345,11.619,11.619,0,0,1,6.261,0A5.943,5.943,0,0,1,21.033,7.54a1.04,1.04,0,0,1,.279.028,4.718,4.718,0,0,1,.123,3.393A5.037,5.037,0,0,1,22.719,14.4c0,4.922-2.924,6-5.709,6.323a3.108,3.108,0,0,1,.848,2.372c0,1.713-.017,3.1-.017,3.516a.6.6,0,0,0,.636.642,1.08,1.08,0,0,0,.223-.022,12.791,12.791,0,0,0,8.549-12.16A12.665,12.665,0,0,0,14.75,2.25Z" transform="translate(-2.25 -2.25)" fill="#212121"/>
</svg>
