<svg xmlns="http://www.w3.org/2000/svg" width="60" height="60" viewBox="0 0 60 60">
  <path id="Icon_simple-javascript" data-name="Icon simple-javascript" d="M0,0H60V60H0ZM55.085,45.69c-.438-2.738-2.22-5.038-7.508-7.182-1.84-.862-3.885-1.463-4.492-2.85A2.952,2.952,0,0,1,42.97,33.9c.375-1.615,2.287-2.1,3.788-1.65a4.067,4.067,0,0,1,2.44,2.25c2.585-1.69,2.585-1.69,4.387-2.813a10.319,10.319,0,0,0-1.465-1.95c-1.575-1.763-3.673-2.663-7.085-2.585l-1.762.222A8.059,8.059,0,0,0,39,29.882,7.843,7.843,0,0,0,40.42,41.06c3.413,2.55,8.4,3.11,9.04,5.513.6,2.925-2.175,3.862-4.915,3.525a6.582,6.582,0,0,1-4.388-3.34l-4.575,2.628a10.11,10.11,0,0,0,2.025,2.772c4.35,4.39,15.225,4.165,17.177-2.51a8.461,8.461,0,0,0,.185-4.125l.115.168ZM32.627,27.577h-5.62c0,4.845-.023,9.66-.023,14.513,0,3.08.158,5.907-.345,6.777-.825,1.723-2.95,1.5-3.915,1.2A4.824,4.824,0,0,1,20.65,47.93a2.145,2.145,0,0,0-.318-.49L15.77,50.252a8.843,8.843,0,0,0,3.31,3.792A11,11,0,0,0,27.1,55.057a7.022,7.022,0,0,0,4.527-3.528c1.275-2.325,1.005-5.175.993-8.365.03-5.135,0-10.273,0-15.448l.01-.14Z"/>
</svg>
