<svg xmlns="http://www.w3.org/2000/svg" width="67.436" height="60" viewBox="0 0 67.436 60">
  <path id="Icon_simple-react" data-name="Icon simple-react" d="M33.718,25.974a6.01,6.01,0,1,0,6.01,6.01A6.01,6.01,0,0,0,33.718,25.974ZM16.882,43.94,15.555,43.6C5.67,41.1,0,36.865,0,31.973s5.67-9.132,15.555-11.63l1.326-.334.374,1.315a66.115,66.115,0,0,0,3.83,10.054l.284.6-.284.6a65.488,65.488,0,0,0-3.83,10.054ZM14.94,23.414c-7.514,2.11-12.124,5.339-12.124,8.559s4.611,6.446,12.124,8.559a70.106,70.106,0,0,1,3.321-8.559,69.548,69.548,0,0,1-3.321-8.559ZM50.555,43.94l-.374-1.318a65.629,65.629,0,0,0-3.833-10.051l-.284-.6.284-.6a65.807,65.807,0,0,0,3.833-10.054l.374-1.315,1.329.334c9.882,2.5,15.552,6.738,15.552,11.633S61.766,41.1,51.884,43.6Zm-1.38-11.967A69.477,69.477,0,0,1,52.5,40.532c7.516-2.113,12.124-5.342,12.124-8.559S60.01,25.527,52.5,23.414a69.649,69.649,0,0,1-3.321,8.559ZM14.92,23.4l-.374-1.312c-2.779-9.8-1.936-16.814,2.312-19.264,4.167-2.405,10.857.436,17.868,7.632l.955.981-.955.981a66.177,66.177,0,0,0-6.805,8.337l-.379.542-.66.056a66.473,66.473,0,0,0-10.635,1.714ZM20.248,4.771a3.921,3.921,0,0,0-1.981.486c-2.793,1.61-3.288,7.207-1.363,14.76a70.588,70.588,0,0,1,9.084-1.408,69.814,69.814,0,0,1,5.766-7.148c-4.383-4.268-8.533-6.69-11.506-6.69ZM47.191,61.985h0c-4,0-9.146-3.015-14.482-8.494l-.955-.981.955-.981a66.114,66.114,0,0,0,6.8-8.34l.379-.542.658-.056A66.4,66.4,0,0,0,51.19,40.88l1.326-.334.377,1.315c2.773,9.789,1.933,16.811-2.315,19.259a6.687,6.687,0,0,1-3.386.865Zm-11.509-9.5c4.383,4.268,8.533,6.69,11.506,6.69h0a3.91,3.91,0,0,0,1.978-.486c2.793-1.61,3.29-7.21,1.363-14.763a70.3,70.3,0,0,1-9.087,1.408,69.328,69.328,0,0,1-5.763,7.151ZM52.516,23.4l-1.326-.334a65.972,65.972,0,0,0-10.641-1.714l-.658-.056-.379-.542a65.79,65.79,0,0,0-6.8-8.337l-.955-.981.955-.981C39.717,3.262,46.4.421,50.577,2.824c4.248,2.45,5.091,9.469,2.315,19.261ZM41.445,18.609a70.073,70.073,0,0,1,9.087,1.408c1.928-7.553,1.43-13.15-1.363-14.76-2.776-1.6-7.994.854-13.487,6.2a69.821,69.821,0,0,1,5.763,7.148Zm-21.2,43.375a6.687,6.687,0,0,1-3.389-.865c-4.248-2.447-5.091-9.466-2.312-19.259l.371-1.315,1.326.334a66.322,66.322,0,0,0,10.635,1.711l.66.056.377.542a66.3,66.3,0,0,0,6.805,8.34l.955.981-.955.981c-5.333,5.479-10.475,8.494-14.473,8.494ZM16.9,43.926c-1.928,7.553-1.43,13.153,1.363,14.763,2.773,1.582,7.988-.857,13.487-6.2a70.24,70.24,0,0,1-5.766-7.151A70.178,70.178,0,0,1,16.9,43.926Zm16.814,1.765c-2.312,0-4.69-.1-7.07-.3l-.66-.056-.379-.542q-2.019-2.9-3.793-5.962t-3.276-6.26l-.281-.6.281-.6q1.507-3.2,3.276-6.26c1.163-2.012,2.442-4.018,3.793-5.962l.379-.542.66-.056a83.69,83.69,0,0,1,14.142,0l.657.056.377.542A84.312,84.312,0,0,1,48.9,31.374l.284.6-.284.6a83.172,83.172,0,0,1-7.072,12.223l-.377.542-.658.056C38.411,45.589,36.031,45.691,33.718,45.691Zm-6.173-3.046a81.611,81.611,0,0,0,12.349,0,81.5,81.5,0,0,0,6.17-10.672A80.319,80.319,0,0,0,39.891,21.3a81.574,81.574,0,0,0-12.346,0,80.016,80.016,0,0,0-6.173,10.672,81.807,81.807,0,0,0,6.173,10.672Z" transform="translate(0 -1.986)"/>
</svg>
